# 3ds Max Wavefront OBJ Exporter v0.97b - (c)2007 guruware
# File Created: 29.05.2019 20:14:45

mtllib Wall.mtl

#
# object Box001
#

v  -9.7103 0.0000 11.9722
v  -9.7103 0.0000 2.9722
v  0.2897 0.0000 2.9722
v  0.2897 0.0000 11.9722
v  -9.7103 12.0000 11.9722
v  0.2897 12.0000 11.9722
v  0.2897 12.0000 2.9722
v  -9.7103 12.0000 2.9722
# 8 vertices

vn -0.5774 -0.5774 0.5774
vn -0.5774 -0.5774 -0.5774
vn 0.5774 -0.5774 -0.5774
vn 0.5774 -0.5774 0.5774
vn -0.5774 0.5774 0.5774
vn 0.5774 0.5774 0.5774
vn 0.5774 0.5774 -0.5774
vn -0.5774 0.5774 -0.5774
# 8 vertex normals

vt 0.9644 0.7017 0.0000
vt 0.9644 0.9800 0.0000
vt 0.6861 0.9800 0.0000
vt 0.6861 0.7017 0.0000
vt 0.3745 0.7017 0.0000
vt 0.6528 0.7017 0.0000
vt 0.6528 0.9800 0.0000
vt 0.3745 0.9800 0.0000
vt 0.0200 0.0200 0.0000
vt 0.3422 0.0200 0.0000
vt 0.3422 0.3422 0.0000
vt 0.0200 0.3422 0.0000
vt 0.3628 0.3745 0.0000
vt 0.6704 0.3745 0.0000
vt 0.6704 0.6821 0.0000
vt 0.3628 0.6821 0.0000
vt 0.0200 0.3628 0.0000
vt 0.3422 0.3628 0.0000
vt 0.3422 0.6850 0.0000
vt 0.0200 0.6850 0.0000
vt 0.3628 0.0356 0.0000
vt 0.6704 0.0356 0.0000
vt 0.6704 0.3432 0.0000
vt 0.3628 0.3432 0.0000
# 24 texture coords

o Box001
g Box001
usemtl wire_087225143
s 2
f 1/1/1 2/2/2 3/3/3 4/4/4 
s 4
f 5/5/5 6/6/6 7/7/7 8/8/8 
s 8
f 1/9/1 4/10/4 6/11/6 5/12/5 
s 16
f 4/13/4 3/14/3 7/15/7 6/16/6 
s 32
f 3/17/3 2/18/2 8/19/8 7/20/7 
s 64
f 2/21/2 1/22/1 5/23/5 8/24/8 
# 6 polygons

