# 3ds Max Wavefront OBJ Exporter v0.97b - (c)2007 guruware
# File Created: 19.05.2019 16:19:19

mtllib SmallHouse.mtl

#
# object Box001
#

v  -20.3376 0.0000 29.6427
v  -20.3376 0.0000 -19.5114
v  29.3638 0.0000 -19.5114
v  29.3638 0.0000 29.6427
v  29.3638 32.5026 29.6427
v  5.4949 37.1188 29.6427
v  3.5313 37.1188 29.6427
v  -20.3376 32.5026 29.6427
v  29.3638 32.5026 -19.5114
v  -20.3376 32.5026 -19.5114
v  3.5313 37.1188 -19.5114
v  5.4949 37.1188 -19.5114
v  -23.7529 32.5026 32.7078
v  3.5313 37.1188 32.7078
v  3.5313 39.1188 32.7078
v  -23.3376 34.5026 32.7468
v  5.4949 37.1188 32.7078
v  5.4949 39.1188 32.7078
v  5.4949 40.6188 32.7078
v  3.5313 40.6188 32.7078
v  32.7792 32.5026 32.7078
v  32.3638 34.5026 32.7468
v  32.7792 32.5026 -22.5842
v  32.3638 34.5026 -22.5851
v  5.4949 37.1188 -22.5842
v  5.4949 39.1188 -22.5842
v  3.5313 37.1188 -22.5842
v  3.5313 39.1188 -22.5842
v  3.5313 40.6188 -22.5842
v  5.4949 40.6188 -22.5842
v  -23.7529 32.5026 -22.5842
v  -23.3376 34.5026 -22.5851
# 32 vertices

vn -0.5774 -0.5774 0.5774
vn -0.5774 -0.5774 -0.5774
vn 0.5774 -0.5774 -0.5774
vn 0.5774 -0.5774 0.5774
vn 0.2149 -0.8768 0.4303
vn -0.0694 -0.7240 0.6863
vn 0.0694 -0.7240 0.6863
vn -0.2149 -0.8768 0.4303
vn 0.2149 -0.8769 -0.4300
vn -0.2149 -0.8769 -0.4300
vn 0.0694 -0.7240 -0.6863
vn -0.0694 -0.7240 -0.6863
vn -0.6140 -0.5428 0.5731
vn 0.0575 -0.6848 0.7264
vn -0.3571 0.3016 0.8840
vn -0.5544 0.5690 0.6074
vn -0.0575 -0.6848 0.7264
vn 0.3571 0.3016 0.8840
vn 0.5774 0.5774 0.5774
vn -0.5774 0.5774 0.5774
vn 0.6140 -0.5428 0.5731
vn 0.5544 0.5690 0.6074
vn 0.6129 -0.5388 -0.5779
vn 0.5559 0.5754 -0.5999
vn -0.0575 -0.6848 -0.7264
vn 0.3575 0.3013 -0.8840
vn 0.0575 -0.6848 -0.7264
vn -0.3575 0.3013 -0.8840
vn -0.5774 0.5774 -0.5774
vn 0.5774 0.5774 -0.5774
vn -0.6129 -0.5388 -0.5779
vn -0.5559 0.5754 -0.5999
# 32 vertex normals

vt 0.9928 0.0282 0.0000
vt 0.9928 0.3566 0.0000
vt 0.6644 0.3566 0.0000
vt 0.6644 0.0282 0.0000
vt 0.7197 0.6736 0.0000
vt 0.9943 0.6736 0.0000
vt 0.9943 0.9482 0.0000
vt 0.8624 0.9482 0.0000
vt 0.8516 0.9482 0.0000
vt 0.7197 0.9482 0.0000
vt 0.0005 0.3463 0.0000
vt 0.2718 0.3463 0.0000
vt 0.2718 0.6176 0.0000
vt 0.0005 0.6176 0.0000
vt 0.3786 0.7243 0.0000
vt 0.6531 0.7243 0.0000
vt 0.6531 0.9989 0.0000
vt 0.5213 0.9989 0.0000
vt 0.5104 0.9989 0.0000
vt 0.3786 0.9989 0.0000
vt 0.2817 0.3509 0.0000
vt 0.5530 0.3509 0.0000
vt 0.5530 0.6222 0.0000
vt 0.2817 0.6222 0.0000
vt 0.0005 0.0547 30.2079
vt 0.2784 0.0005 -30.2079
vt 0.2818 0.0202 -30.2079
vt 0.0107 0.0615 -30.2079
vt 0.3019 0.0005 -30.2079
vt 0.2985 0.0202 -30.2079
vt 0.2985 0.0330 -30.2079
vt 0.2818 0.0330 -30.2079
vt 0.5799 0.0547 30.2079
vt 0.5697 0.0615 -30.2079
vt 0.4783 0.3090 -30.2079
vt 0.4701 0.3015 -30.2079
vt 0.2977 0.3460 -30.2079
vt 0.2954 0.3335 -30.2079
vt 0.2829 0.3460 -30.2079
vt 0.2852 0.3335 -30.2079
vt 0.2852 0.3257 -30.2079
vt 0.2954 0.3257 -30.2079
vt 0.1022 0.3090 -30.2079
vt 0.1104 0.3015 -30.2079
vt 0.6828 0.3601 0.0000
vt 0.8325 0.3601 0.0000
vt 0.8448 0.3601 0.0000
vt 0.9945 0.3601 0.0000
vt 0.9945 0.6718 0.0000
vt 0.8448 0.6718 0.0000
vt 0.8325 0.6718 0.0000
vt 0.6828 0.6718 0.0000
vt 0.1803 0.6275 0.0000
vt 0.3583 0.6275 0.0000
vt 0.3583 0.9982 0.0000
vt 0.1803 0.9982 0.0000
vt 0.3601 0.6321 0.0000
vt 0.3732 0.6321 0.0000
vt 0.3732 0.9995 0.0000
vt 0.3601 0.9995 0.0000
vt 0.0005 0.6275 0.0000
vt 0.1785 0.6275 0.0000
vt 0.1785 0.9982 0.0000
vt 0.0005 0.9982 0.0000
vt 0.4016 0.0005 20.4814
vt 0.7690 0.0005 20.4814
vt 0.7690 0.0105 -20.4814
vt 0.4016 0.0105 -20.4814
vt 0.9949 0.0243 10.2059
vt 0.6275 0.0243 10.2059
vt 0.6275 0.0143 -10.2059
vt 0.9949 0.0143 -10.2059
# 72 texture coords

o Box001
g Box001
usemtl wire_006135113
s 1
f 1/1/1 2/2/2 3/3/3 4/4/4 
s 2
f 1/5/1 4/6/4 5/7/5 6/8/6 7/9/7 8/10/8 
s 4
f 4/11/4 3/12/3 9/13/9 5/14/5 
s 2
f 3/15/3 2/16/2 10/17/10 11/18/11 12/19/12 9/20/9 
s 4
f 2/21/2 1/22/1 8/23/8 10/24/10 
s off
f 13/25/13 14/26/14 15/27/15 16/28/16 
f 14/26/14 17/29/17 18/30/18 19/31/19 20/32/20 15/27/15 
f 17/29/17 21/33/21 22/34/22 18/30/18 
f 21/33/21 23/35/23 24/36/24 22/34/22 
f 23/35/23 25/37/25 26/38/26 24/36/24 
f 25/37/25 27/39/27 28/40/28 29/41/29 30/42/30 26/38/26 
f 27/39/27 31/43/31 32/44/32 28/40/28 
f 31/43/31 13/25/13 16/28/16 32/44/32 
f 8/45/8 7/46/7 14/46/14 13/45/13 
f 7/46/7 6/47/6 17/47/17 14/46/14 
f 6/47/6 5/48/5 21/48/21 17/47/17 
f 5/48/5 9/49/9 23/49/23 21/48/21 
f 9/49/9 12/50/12 25/50/25 23/49/23 
f 12/50/12 11/51/11 27/51/27 25/50/25 
f 11/51/11 10/52/10 31/52/31 27/51/27 
f 10/52/10 8/45/8 13/45/13 31/52/31 
s 1
f 16/53/16 15/54/15 28/55/28 32/56/32 
f 20/57/20 19/58/19 30/59/30 29/60/29 
f 18/61/18 22/62/22 24/63/24 26/64/26 
s off
f 18/65/18 26/66/26 30/67/30 19/68/19 
f 28/69/28 15/70/15 20/71/20 29/72/29 
# 26 polygons

